<?xml version="1.0" standalone="no"?>
<!DOCTYPE svg PUBLIC "-//W3C//DTD SVG 20010904//EN"
 "http://www.w3.org/TR/2001/REC-SVG-20010904/DTD/svg10.dtd">
<svg version="1.0" xmlns="http://www.w3.org/2000/svg"
 width="300.000000pt" height="70.000000pt" viewBox="0 0 300.000000 70.000000"
 preserveAspectRatio="xMidYMid meet">

<g transform="translate(0.000000,70.000000) scale(0.100000,-0.100000)"
fill="#000000" stroke="none">
<path d="M309 567 c-19 -12 -45 -44 -59 -72 -21 -43 -25 -64 -25 -145 0 -81 4
-102 25 -145 47 -93 128 -119 190 -60 32 31 38 31 42 3 2 -13 8 -23 13 -23 6
0 11 49 13 123 l3 122 -71 0 c-68 0 -70 -1 -70 -25 0 -22 4 -25 40 -25 40 0
40 0 40 -39 0 -23 -9 -51 -23 -72 -40 -60 -101 -47 -133 28 -21 48 -18 199 4
243 36 73 111 73 139 0 13 -32 21 -40 41 -40 22 0 24 3 19 34 -8 48 -35 86
-74 102 -46 20 -75 17 -114 -9z"/>
<path d="M784 580 c-32 -13 -72 -66 -85 -112 -17 -65 -8 -225 16 -273 55 -109
172 -109 229 1 18 33 21 57 21 154 0 97 -3 121 -21 155 -36 68 -101 99 -160
75z m93 -72 c58 -63 56 -253 -3 -319 -23 -26 -66 -24 -91 3 -56 61 -57 258 -2
317 26 28 70 27 96 -1z"/>
<path d="M1170 350 l0 -231 123 3 122 3 3 28 3 27 -100 0 -101 0 0 200 0 200
-25 0 -25 0 0 -230z"/>
<path d="M1622 354 l3 -229 83 1 c98 1 124 15 160 85 21 40 23 55 20 154 -3
92 -7 116 -25 145 -33 52 -58 63 -156 68 l-87 4 2 -228z m175 151 c62 -43 56
-282 -8 -315 -10 -6 -40 -10 -68 -10 l-51 0 0 170 0 170 53 0 c31 0 61 -6 74
-15z"/>
<path d="M2094 565 c-11 -28 4 -45 41 -45 l35 0 0 -169 0 -170 -37 -3 c-33 -3
-38 -6 -38 -28 0 -25 0 -25 95 -25 l95 0 3 27 c3 26 1 28 -32 28 l-36 0 0 170
0 170 35 0 c32 0 35 2 35 30 l0 30 -95 0 c-76 0 -97 -3 -101 -15z"/>
<path d="M2534 567 c-2 -7 -3 -109 -2 -227 l3 -215 120 0 120 0 3 28 3 27
-101 0 -101 0 3 78 3 77 88 3 c85 3 87 3 87 27 0 25 -1 25 -90 25 l-90 0 0 65
0 65 95 0 95 0 0 30 0 30 -115 0 c-85 0 -117 -3 -121 -13z"/>
</g>
</svg>
